<?xml version="1.0" standalone="no"?><!DOCTYPE svg PUBLIC "-//W3C//DTD SVG 1.1//EN" "http://www.w3.org/Graphics/SVG/1.1/DTD/svg11.dtd"><svg t="1624414213434" class="icon" viewBox="0 0 1024 1024" version="1.1" xmlns="http://www.w3.org/2000/svg" p-id="6743" xmlns:xlink="http://www.w3.org/1999/xlink" width="200" height="200"><defs><style type="text/css"></style></defs><path d="M925.184 306.944c-16.896 16.896-28.992 16.896-45.952 0L710.72 138.496c-16.896-16.96-16.896-29.12 0-46.016l68.928-68.928a43.392 43.392 0 0 1 61.312 0l153.152 153.216a43.328 43.328 0 0 1 0 61.312l-68.928 68.864z m-54.848 54.912L381.44 850.816a21.76 21.76 0 0 1-30.656 0L166.976 666.944a21.632 21.632 0 0 1 0-30.592l488.96-488.96a21.76 21.76 0 0 1 30.656 0L870.4 331.2c8.32 8.512 8.32 22.208-0.064 30.656zM249.792 481.472l-68.352-67.648 128.192-128.96-33.28-33.472-128.448 129.28-61.696-61.12L214.72 190.208 181.504 156.8 52.672 286.4l-32.448-32.192A45.184 45.184 0 0 1 6.208 220.8c0-13.12 4.672-24.256 14.016-33.472l163.264-161.6a48.064 48.064 0 0 1 67.584 0l229.312 226.944L252.352 478.4c-0.96 0.96-1.664 2.048-2.56 3.072zM48.576 984.96l-17.28 5.952-4.48-4.416 5.888-17.344 15.872 15.808z m9.536-89.792l64.512 64.448-67.84 23.168L34.88 962.88l23.232-67.712z m7.808-22.784l70.4-205.44 214.464 214.528-205.376 70.4-79.488-79.488z m708.544-328.64l229.312 226.944a46.976 46.976 0 0 1 0 66.944L840.512 999.168c-9.344 9.344-20.608 13.952-33.792 13.952s-24.448-4.608-33.728-13.952l-35.968-35.456L855.36 844.736l-33.344-33.408L703.424 930.56l-61.696-61.056 118.656-119.36-33.28-33.408-118.912 119.616-64.96-64.32c1.152-0.896 231.232-228.288 231.232-228.288z" p-id="6744"></path></svg>